<svg xmlns="http://www.w3.org/2000/svg" width="1005" height="600"><rect width="1005" height="600" x="0" y="0" fill="#fcefef" id="backgorund"/><g transform="translate(402.5,300)" id="viz"><path fill="#f7b375" display="" d="M0.9999914047755474,-137.24635702702776A137.25,137.25,0,0,1,127.86880553169189,49.871144682053995L65.04346757473722,24.839242155390068A69.625,69.625,0,0,0,0.999991404775556,-69.61781842452675Z"><title>Robusto</title></path><path fill="#acbf82" display="" d="M127.12853558385311,51.72908215216074A137.25,137.25,0,1,1,-0.9999914047755338,-137.24635702702776L-0.9999914047755337,-69.61781842452675A69.625,69.625,0,1,0,64.30319762689844,26.697179625496815Z"><title>Arábica</title></path><path fill="#f7b375" display="" d="M0.9999914047755541,-206.87258310900063A206.875,206.875,0,0,1,85.95597544023293,-188.1723569260854L57.560482099094216,-126.79650389707066A139.25,139.25,0,0,0,0.9999914047755496,-139.2464093511584Z"><title>África </title></path><path fill="#f7b375" display="" d="M87.77111067794596,-187.332585941047A206.875,206.875,0,0,1,124.39786690498937,-165.29499791127543L83.47225027453,-111.45826992245227A139.25,139.25,0,0,0,59.375617336807245,-125.95673291203228Z"><title>América </title></path><path fill="#f7b375" display="" d="M125.99003935120348,-164.08465988410433A206.875,206.875,0,0,1,204.30913240463815,32.48144148685582L137.57383052239769,21.540744077087915A139.25,139.25,0,0,0,85.06442272074413,-110.24793189528116Z"><title>Asia</title></path><path fill="#f7b375" display="" d="M203.98557119263776,34.45507756794795A206.875,206.875,0,0,1,192.54994865054536,75.64246756731526L129.7268075792247,50.61144035989102A139.25,139.25,0,0,0,137.2502693103973,23.514380158180053Z"><title>África</title></path><path fill="#acbf82" display="" d="M191.80967870270658,77.50040503742203A206.875,206.875,0,0,1,23.360990036885866,205.55176907411067L16.04931451042106,138.32202284432364A139.25,139.25,0,0,0,128.98653763138591,52.46937782999777Z"><title>América </title></path><path fill="#acbf82" display="" d="M21.37273121225492,205.7680052523441A206.875,206.875,0,0,1,-141.54017420384065,150.87625628754992L-95.033691106245,101.77995900334608A139.25,139.25,0,0,0,14.06105568579011,138.53825902255704Z"><title>África</title></path><path fill="#acbf82" display="" d="M-142.99215270749858,149.5008691917054A206.875,206.875,0,0,1,-183.24282325708703,-96.01735962716305L-123.49428422223386,-64.34068902675914A139.25,139.25,0,0,0,-96.48566960990284,100.40457190750165Z"><title>América</title></path><path fill="#acbf82" display="" d="M-182.3060144278388,-97.78436852808652A206.875,206.875,0,0,1,-87.77111067794581,-187.33258594104706L-59.375617336807174,-125.95673291203231A139.25,139.25,0,0,0,-122.55747539298565,-66.10769792768251Z"><title>Asia</title></path><path fill="#acbf82" display="" d="M-85.95597544023288,-188.1723569260854A206.875,206.875,0,0,1,-0.9999914047753498,-206.87258310900063L-0.999991404775443,-139.2464093511584A139.25,139.25,0,0,0,-57.560482099094145,-126.79650389707069Z"><title>África </title></path><path fill="#f7b375" display="" d="M0.9999914047755939,-276.4981917069086A276.5,276.5,0,0,1,58.46232582734907,-270.248786230127L43.92482395241827,-204.20424938220324A208.875,208.875,0,0,0,0.9999914047755584,-208.87260625125157Z"><title>Angola</title></path><path fill="#f7b375" display="" d="M60.41555015022354,-269.8188490451433A276.5,276.5,0,0,1,115.1910096799951,-251.3628478691775L86.79576336053242,-189.98752876876537A208.875,208.875,0,0,0,45.87804827529268,-203.7743121972196Z"><title>Camerún</title></path><path fill="#f7b375" display="" d="M117.00614491770818,-250.5230768841391A276.5,276.5,0,0,1,166.5334899456166,-220.7234621116052L125.60822934047044,-166.8872024660722A208.875,208.875,0,0,0,88.61089859824544,-189.147757783727Z"><title>Brasil</title></path><path fill="#f7b375" display="" d="M168.12566239183073,-219.51312408443408A276.5,276.5,0,0,1,210.08904931006128,-179.76329258220278L158.54739411996812,-135.983416057869A208.875,208.875,0,0,0,127.20040178668457,-165.6768644389011Z"><title>India</title></path><path fill="#f7b375" display="" d="M211.38381075076407,-178.2389815738554A276.5,276.5,0,0,1,243.8210782259751,-130.39759128420638L184.07305896318832,-98.72119624951168A208.875,208.875,0,0,0,159.8421555606709,-134.45910504952158Z"><title>Java</title></path><path fill="#f7b375" display="" d="M244.7578870552233,-128.630582383283A276.5,276.5,0,0,1,266.15230451170737,-74.93464354427397L200.99167215180097,-56.842883025256214A208.875,208.875,0,0,0,185.00986779243652,-96.95418734858829Z"><title>Sri Lanka</title></path><path fill="#f7b375" display="" d="M266.6873565898336,-73.00756012309245A276.5,276.5,0,0,1,276.0385448455126,-15.96783515608583L208.51213813679448,-12.306659767066686A208.875,208.875,0,0,0,201.52672422992717,-54.915799604074685Z"><title>Sumatra</title></path><path fill="#f7b375" display="" d="M276.1468217320113,-13.970785493621209A276.5,276.5,0,0,1,273.017529617149,43.745611457026776L206.2828082871082,32.80500922396095A208.875,208.875,0,0,0,208.6204150232932,-10.309610104602065Z"><title>Vietnam</title></path><path fill="#f7b375" display="" d="M272.69396840514867,45.71924753811885A276.5,276.5,0,0,1,257.23051814107765,101.41356189816382L194.4079235887913,76.38275244382518A208.875,208.875,0,0,0,205.9592470751078,34.778645305053054Z"><title>Uganda</title></path><path fill="#acbf82" display="" d="M256.4902481932389,103.27149936827057A276.5,276.5,0,0,1,229.4156935279166,154.33952689802126L173.44274045235068,116.3889230527481A208.875,208.875,0,0,0,193.66765364095252,78.24068991393193Z"><title>Bolivia</title></path><path fill="#acbf82" display="" d="M228.29332904424945,155.99489066598963A276.5,276.5,0,0,1,190.87364606262005,200.04874715619104L144.36756754011878,150.9528769767216A208.875,208.875,0,0,0,172.3203759686835,118.04428682071644Z"><title>Colombia</title></path><path fill="#acbf82" display="" d="M189.42166755896218,201.42413425203546A276.5,276.5,0,0,1,143.40655904825616,236.40391033555056L108.54192762273784,178.4584421453363A208.875,208.875,0,0,0,142.91558903646091,152.32826407256604Z"><title>Costa Rica</title></path><path fill="#acbf82" display="" d="M141.69285942568044,237.4350091873024A276.5,276.5,0,0,1,89.2339407177385,261.70508941169476L67.64098780540571,197.61948890154775A208.875,208.875,0,0,0,106.82822800016218,179.48954099708808Z"><title>Ecuador</title></path><path fill="#acbf82" display="" d="M87.33865066595625,262.34368698303007A276.5,276.5,0,0,1,30.88884249566125,274.7692293712639L23.57723057585121,207.54006799500945A208.875,208.875,0,0,0,65.74569775362355,198.25808647288306Z"><title>Perú </title></path><path fill="#acbf82" display="" d="M28.900583671030226,274.98546554949735A276.5,276.5,0,0,1,-28.90058367103044,274.9854655494973L-21.588971751220413,207.75630417324285A208.875,208.875,0,0,0,21.588971751220253,207.75630417324288Z"><title>Costa de Marfil</title></path><path fill="#acbf82" display="" d="M-30.88884249566146,274.76922937126386A276.5,276.5,0,0,1,-87.33865066595645,262.34368698303L-65.74569775362369,198.25808647288304A208.875,208.875,0,0,0,-23.57723057585137,207.54006799500945Z"><title>Etiopía </title></path><path fill="#acbf82" display="" d="M-89.2339407177387,261.70508941169464A276.5,276.5,0,0,1,-141.69285942568064,237.43500918730223L-106.82822800016233,179.48954099708803A208.875,208.875,0,0,0,-67.64098780540587,197.6194889015477Z"><title>Kenia</title></path><path fill="#acbf82" display="" d="M-143.40655904825627,236.40391033555045A276.5,276.5,0,0,1,-189.42166755896238,201.42413425203532L-142.91558903646103,152.32826407256593A208.875,208.875,0,0,0,-108.54192762273799,178.4584421453362Z"><title>Tanzania</title></path><path fill="#acbf82" display="" d="M-190.87364606262008,200.048747156191A276.5,276.5,0,0,1,-228.29332904424945,155.99489066598963L-172.32037596868346,118.04428682071647A208.875,208.875,0,0,0,-144.3675675401188,150.95287697672157Z"><title>El Salvador </title></path><path fill="#acbf82" display="" d="M-229.41569352791657,154.33952689802132A276.5,276.5,0,0,1,-256.4902481932389,103.27149936827051L-193.66765364095252,78.2406899139319A208.875,208.875,0,0,0,-173.44274045235068,116.38892305274811Z"><title>Guatemala</title></path><path fill="#acbf82" display="" d="M-257.23051814107765,101.41356189816382A276.5,276.5,0,0,1,-272.69396840514867,45.71924753811879L-205.9592470751078,34.778645305053026A208.875,208.875,0,0,0,-194.4079235887913,76.38275244382515Z"><title>Jamaica</title></path><path fill="#acbf82" display="" d="M-273.017529617149,43.74561145702672A276.5,276.5,0,0,1,-276.1468217320113,-13.970785493621332L-208.62041502329316,-10.309610104602136A208.875,208.875,0,0,0,-206.2828082871082,32.80500922396089Z"><title>Nicaragua</title></path><path fill="#acbf82" display="" d="M-276.0385448455126,-15.967835156085885A276.5,276.5,0,0,1,-266.6873565898335,-73.00756012309256L-201.52672422992714,-54.915799604074756A208.875,208.875,0,0,0,-208.51213813679448,-12.30665976706675Z"><title>Panamá </title></path><path fill="#acbf82" display="" d="M-266.1523045117073,-74.93464354427402A276.5,276.5,0,0,1,-244.75788705522325,-128.6305823832831L-185.0098677924365,-96.95418734858835A208.875,208.875,0,0,0,-200.99167215180094,-56.842883025256285Z"><title>Venezuela</title></path><path fill="#acbf82" display="" d="M-243.82107822597507,-130.39759128420644A276.5,276.5,0,0,1,-211.38381075076396,-178.23898157385548L-159.84215556067085,-134.45910504952167A208.875,208.875,0,0,0,-184.0730589631883,-98.72119624951173Z"><title>India</title></path><path fill="#acbf82" display="" d="M-210.0890493100612,-179.76329258220284A276.5,276.5,0,0,1,-168.12566239183056,-219.51312408443422L-127.20040178668454,-165.67686443890113A208.875,208.875,0,0,0,-158.54739411996803,-135.98341605786908Z"><title>Indonesia</title></path><path fill="#acbf82" display="" d="M-166.5334899456165,-220.72346211160527A276.5,276.5,0,0,1,-117.00614491770801,-250.5230768841392L-88.61089859824541,-189.14775778372703A208.875,208.875,0,0,0,-125.60822934047027,-166.88720246607235Z"><title>Yemen</title></path><path fill="#acbf82" display="" d="M-115.19100967999502,-251.36284786917756A276.5,276.5,0,0,1,-60.41555015022327,-269.81884904514334L-45.87804827529261,-203.7743121972196A208.875,208.875,0,0,0,-86.79576336053222,-189.9875287687655Z"><title>Mozambique</title></path><path fill="#acbf82" display="" d="M-58.46232582734892,-270.248786230127A276.5,276.5,0,0,1,-0.9999914047753209,-276.4981917069086L-0.9999914047754912,-208.87260625125157A208.875,208.875,0,0,0,-43.92482395241802,-204.20424938220333Z"><title>Zambia</title></path></g><g id="labels" transform="translate(402.5,300)" text-anchor="middle"><text transform="rotate(90) translate(34.8125,0) rotate(180)"><tspan x="0" y="4" style="font-family: Arial, sans-serif; font-size: 10px; fill: black; font-weight: normal; font-style: italic;"/></text><text transform="rotate(-34.137931034482754) translate(104.4375,0) rotate(0)"><tspan x="0" y="4" style="font-family: Arial, sans-serif; font-size: 10px; fill: black; font-weight: normal; font-style: italic;">Robusto</tspan></text><text transform="rotate(145.86206896551724) translate(104.4375,0) rotate(180)"><tspan x="0" y="4" style="font-family: Arial, sans-serif; font-size: 10px; fill: black; font-weight: normal; font-style: italic;">Arábica</tspan></text><text transform="rotate(-77.58620689655173) translate(174.0625,0) rotate(0)"><tspan x="0" y="4" style="font-family: Arial, sans-serif; font-size: 10px; fill: black; font-weight: normal; font-style: italic;">África </tspan></text><text transform="rotate(-58.96551724137931) translate(174.0625,0) rotate(0)"><tspan x="0" y="4" style="font-family: Arial, sans-serif; font-size: 10px; fill: black; font-weight: normal; font-style: italic;">América </tspan></text><text transform="rotate(-21.724137931034477) translate(174.0625,0) rotate(0)"><tspan x="0" y="4" style="font-family: Arial, sans-serif; font-size: 10px; fill: black; font-weight: normal; font-style: italic;">Asia</tspan></text><text transform="rotate(15.517241379310363) translate(174.0625,0) rotate(0)"><tspan x="0" y="4" style="font-family: Arial, sans-serif; font-size: 10px; fill: black; font-weight: normal; font-style: italic;">África</tspan></text><text transform="rotate(52.758620689655174) translate(174.0625,0) rotate(0)"><tspan x="0" y="4" style="font-family: Arial, sans-serif; font-size: 10px; fill: black; font-weight: normal; font-style: italic;">América </tspan></text><text transform="rotate(108.62068965517244) translate(174.0625,0) rotate(180)"><tspan x="0" y="4" style="font-family: Arial, sans-serif; font-size: 10px; fill: black; font-weight: normal; font-style: italic;">África</tspan></text><text transform="rotate(170.68965517241378) translate(174.0625,0) rotate(180)"><tspan x="0" y="4" style="font-family: Arial, sans-serif; font-size: 10px; fill: black; font-weight: normal; font-style: italic;">América</tspan></text><text transform="rotate(226.55172413793105) translate(174.0625,0) rotate(180)"><tspan x="0" y="4" style="font-family: Arial, sans-serif; font-size: 10px; fill: black; font-weight: normal; font-style: italic;">Asia</tspan></text><text transform="rotate(257.58620689655174) translate(174.0625,0) rotate(180)"><tspan x="0" y="4" style="font-family: Arial, sans-serif; font-size: 10px; fill: black; font-weight: normal; font-style: italic;">África </tspan></text><text transform="rotate(-83.79310344827586) translate(243.6875,0) rotate(0)"><tspan x="0" y="4" style="font-family: Arial, sans-serif; font-size: 10px; fill: black; font-weight: normal; font-style: italic;">Angola</tspan></text><text transform="rotate(-71.37931034482759) translate(243.6875,0) rotate(0)"><tspan x="0" y="4" style="font-family: Arial, sans-serif; font-size: 10px; fill: black; font-weight: normal; font-style: italic;">Camerún</tspan></text><text transform="rotate(-58.96551724137931) translate(243.6875,0) rotate(0)"><tspan x="0" y="4" style="font-family: Arial, sans-serif; font-size: 10px; fill: black; font-weight: normal; font-style: italic;">Brasil</tspan></text><text transform="rotate(-46.55172413793103) translate(243.6875,0) rotate(0)"><tspan x="0" y="4" style="font-family: Arial, sans-serif; font-size: 10px; fill: black; font-weight: normal; font-style: italic;">India</tspan></text><text transform="rotate(-34.13793103448276) translate(243.6875,0) rotate(0)"><tspan x="0" y="4" style="font-family: Arial, sans-serif; font-size: 10px; fill: black; font-weight: normal; font-style: italic;">Java</tspan></text><text transform="rotate(-21.724137931034477) translate(243.6875,0) rotate(0)"><tspan x="0" y="4" style="font-family: Arial, sans-serif; font-size: 10px; fill: black; font-weight: normal; font-style: italic;">Sri Lanka</tspan></text><text transform="rotate(-9.310344827586192) translate(243.6875,0) rotate(0)"><tspan x="0" y="4" style="font-family: Arial, sans-serif; font-size: 10px; fill: black; font-weight: normal; font-style: italic;">Sumatra</tspan></text><text transform="rotate(3.1034482758620925) translate(243.6875,0) rotate(0)"><tspan x="0" y="4" style="font-family: Arial, sans-serif; font-size: 10px; fill: black; font-weight: normal; font-style: italic;">Vietnam</tspan></text><text transform="rotate(15.517241379310363) translate(243.6875,0) rotate(0)"><tspan x="0" y="4" style="font-family: Arial, sans-serif; font-size: 10px; fill: black; font-weight: normal; font-style: italic;">Uganda</tspan></text><text transform="rotate(27.93103448275862) translate(243.6875,0) rotate(0)"><tspan x="0" y="4" style="font-family: Arial, sans-serif; font-size: 10px; fill: black; font-weight: normal; font-style: italic;">Bolivia</tspan></text><text transform="rotate(40.34482758620689) translate(243.6875,0) rotate(0)"><tspan x="0" y="4" style="font-family: Arial, sans-serif; font-size: 10px; fill: black; font-weight: normal; font-style: italic;">Colombia</tspan></text><text transform="rotate(52.758620689655174) translate(243.6875,0) rotate(0)"><tspan x="0" y="4" style="font-family: Arial, sans-serif; font-size: 10px; fill: black; font-weight: normal; font-style: italic;">Costa Rica</tspan></text><text transform="rotate(65.17241379310346) translate(243.6875,0) rotate(0)"><tspan x="0" y="4" style="font-family: Arial, sans-serif; font-size: 10px; fill: black; font-weight: normal; font-style: italic;">Ecuador</tspan></text><text transform="rotate(77.58620689655174) translate(243.6875,0) rotate(0)"><tspan x="0" y="4" style="font-family: Arial, sans-serif; font-size: 10px; fill: black; font-weight: normal; font-style: italic;">Perú </tspan></text><text transform="rotate(90.00000000000003) translate(243.6875,0) rotate(180)"><tspan x="0" y="4" style="font-family: Arial, sans-serif; font-size: 10px; fill: black; font-weight: normal; font-style: italic;">Costa de Marfil</tspan></text><text transform="rotate(102.41379310344831) translate(243.6875,0) rotate(180)"><tspan x="0" y="4" style="font-family: Arial, sans-serif; font-size: 10px; fill: black; font-weight: normal; font-style: italic;">Etiopía </tspan></text><text transform="rotate(114.82758620689657) translate(243.6875,0) rotate(180)"><tspan x="0" y="4" style="font-family: Arial, sans-serif; font-size: 10px; fill: black; font-weight: normal; font-style: italic;">Kenia</tspan></text><text transform="rotate(127.24137931034488) translate(243.6875,0) rotate(180)"><tspan x="0" y="4" style="font-family: Arial, sans-serif; font-size: 10px; fill: black; font-weight: normal; font-style: italic;">Tanzania</tspan></text><text transform="rotate(139.6551724137931) translate(243.6875,0) rotate(180)"><tspan x="0" y="4" style="font-family: Arial, sans-serif; font-size: 10px; fill: black; font-weight: normal; font-style: italic;">El Salvador </tspan></text><text transform="rotate(152.06896551724134) translate(243.6875,0) rotate(180)"><tspan x="0" y="4" style="font-family: Arial, sans-serif; font-size: 10px; fill: black; font-weight: normal; font-style: italic;">Guatemala</tspan></text><text transform="rotate(164.48275862068968) translate(243.6875,0) rotate(180)"><tspan x="0" y="4" style="font-family: Arial, sans-serif; font-size: 10px; fill: black; font-weight: normal; font-style: italic;">Jamaica</tspan></text><text transform="rotate(176.8965517241379) translate(243.6875,0) rotate(180)"><tspan x="0" y="4" style="font-family: Arial, sans-serif; font-size: 10px; fill: black; font-weight: normal; font-style: italic;">Nicaragua</tspan></text><text transform="rotate(189.31034482758628) translate(243.6875,0) rotate(180)"><tspan x="0" y="4" style="font-family: Arial, sans-serif; font-size: 10px; fill: black; font-weight: normal; font-style: italic;">Panamá </tspan></text><text transform="rotate(201.72413793103448) translate(243.6875,0) rotate(180)"><tspan x="0" y="4" style="font-family: Arial, sans-serif; font-size: 10px; fill: black; font-weight: normal; font-style: italic;">Venezuela</tspan></text><text transform="rotate(214.1379310344828) translate(243.6875,0) rotate(180)"><tspan x="0" y="4" style="font-family: Arial, sans-serif; font-size: 10px; fill: black; font-weight: normal; font-style: italic;">India</tspan></text><text transform="rotate(226.55172413793105) translate(243.6875,0) rotate(180)"><tspan x="0" y="4" style="font-family: Arial, sans-serif; font-size: 10px; fill: black; font-weight: normal; font-style: italic;">Indonesia</tspan></text><text transform="rotate(238.96551724137936) translate(243.6875,0) rotate(180)"><tspan x="0" y="4" style="font-family: Arial, sans-serif; font-size: 10px; fill: black; font-weight: normal; font-style: italic;">Yemen</tspan></text><text transform="rotate(251.37931034482762) translate(243.6875,0) rotate(180)"><tspan x="0" y="4" style="font-family: Arial, sans-serif; font-size: 10px; fill: black; font-weight: normal; font-style: italic;">Mozambique</tspan></text><text transform="rotate(263.79310344827593) translate(243.6875,0) rotate(180)"><tspan x="0" y="4" style="font-family: Arial, sans-serif; font-size: 10px; fill: black; font-weight: normal; font-style: italic;">Zambia</tspan></text></g><g id="legend" transform="translate(805,33)"><g transform="translate(5,0)"><g class="legendColor" transform="translate(0,0)"><g class="legendCells" transform="translate(0,16)"><g class="cell" transform="translate(0, 0)"><rect class="swatch" height="15" width="15" style="fill: rgb(172, 191, 130);"/><text class="label" transform="translate( 20, 12.5)" font-family="&quot;Arial&quot;, sans-serif" font-size="10px"><tspan x="0" dy="0em">Arábica</tspan></text></g><g class="cell" transform="translate(0, 21)"><rect class="swatch" height="15" width="15" style="fill: rgb(247, 179, 117);"/><text class="label" transform="translate( 20, 12.5)" font-family="&quot;Arial&quot;, sans-serif" font-size="10px"><tspan x="0" dy="0em">Robusto</tspan></text></g></g><text class="legendTitle" font-family="&quot;Arial&quot;, sans-serif" font-size="12px" font-weight="bold"><tspan x="0" dy="0em">Variedad</tspan></text></g></g></g></svg>