<?xml version="1.0" standalone="no"?>
<!DOCTYPE svg PUBLIC "-//W3C//DTD SVG 20010904//EN"
 "http://www.w3.org/TR/2001/REC-SVG-20010904/DTD/svg10.dtd">
<svg version="1.0" xmlns="http://www.w3.org/2000/svg"
 width="735.000000pt" height="911.000000pt" viewBox="0 0 735.000000 911.000000"
 preserveAspectRatio="xMidYMid meet">

<g transform="translate(0.000000,911.000000) scale(0.100000,-0.100000)"
fill="#000000" stroke="none">
<path d="M4384 7912 c-31 -24 -54 -75 -54 -116 0 -20 14 -62 35 -100 39 -74
45 -131 20 -180 -19 -35 -19 -56 -1 -56 18 0 56 90 56 134 0 20 -14 61 -35
100 -46 88 -48 142 -5 183 47 44 33 75 -16 35z"/>
<path d="M5466 7894 c-54 -54 -55 -143 -2 -220 30 -44 35 -122 11 -164 -18
-31 -19 -63 -2 -58 21 7 57 90 57 132 0 26 -12 63 -35 107 -46 89 -46 127 0
177 19 22 32 42 28 46 -12 12 -31 6 -57 -20z"/>
<path d="M3250 7880 c-50 -53 -49 -141 1 -211 31 -43 37 -118 14 -170 -13 -29
-15 -43 -7 -51 8 -8 16 -1 31 23 43 70 40 137 -8 216 -45 73 -44 130 4 176 19
19 32 37 28 40 -14 14 -36 6 -63 -23z"/>
<path d="M2108 7882 c-67 -40 -76 -133 -23 -228 41 -72 44 -116 15 -174 -24
-48 -25 -50 -2 -50 27 0 52 61 52 125 0 44 -7 69 -36 122 -43 82 -41 119 8
170 38 39 29 61 -14 35z"/>
<path d="M3926 7332 c-7 -11 9 -254 29 -452 8 -80 20 -194 25 -254 5 -61 13
-113 17 -117 5 -3 150 -9 325 -13 l316 -6 22 96 22 96 33 -5 c46 -7 116 10
143 36 46 42 65 96 70 195 4 87 3 94 -19 118 -30 32 -63 49 -112 58 -29 6 -37
11 -33 24 15 49 37 184 33 196 -4 10 -91 14 -419 19 -227 3 -420 8 -429 12
-10 3 -20 2 -23 -3z m832 -57 c2 -2 -8 -56 -24 -119 l-28 -115 -80 5 c-115 6
-567 24 -609 24 -40 0 -37 -8 -51 163 l-5 57 397 -5 c217 -3 398 -7 400 -10z
m80 -239 c61 -31 66 -47 54 -147 -16 -128 -57 -179 -145 -179 -59 0 -60 3 -32
156 36 195 32 184 67 184 16 0 41 -6 56 -14z"/>
<path d="M5017 7323 c-6 -9 20 -436 28 -463 2 -8 9 -84 15 -169 7 -85 15 -163
19 -173 6 -17 24 -19 236 -25 127 -4 270 -7 320 -7 l90 -1 21 90 21 90 69 5
c81 6 102 16 137 67 31 46 46 107 47 189 0 88 -39 132 -134 149 -32 7 -37 11
-32 29 21 76 38 188 30 196 -6 6 -139 12 -304 15 -162 2 -354 7 -426 11 -75 4
-134 2 -137 -3z m563 -43 c135 0 251 -4 259 -9 13 -8 11 -24 -8 -108 -13 -54
-34 -154 -47 -223 -14 -69 -30 -149 -35 -179 l-11 -54 -92 6 c-50 4 -194 10
-319 13 -125 4 -229 10 -231 13 -7 10 -35 322 -40 440 l-5 114 142 -6 c78 -4
252 -7 387 -7z m361 -263 l34 -23 0 -95 c0 -89 -2 -99 -28 -137 -29 -41 -68
-62 -116 -62 -55 0 -56 6 -27 161 15 79 29 152 32 162 8 25 64 22 105 -6z"/>
<path d="M2807 7313 c-7 -10 8 -232 29 -438 8 -82 19 -197 24 -255 12 -145 10
-142 79 -135 31 3 171 2 311 -3 206 -6 257 -5 266 5 6 8 19 50 29 96 l17 82
62 -3 c76 -3 113 17 152 84 24 41 29 62 32 141 4 75 1 98 -13 119 -19 30 -87
63 -129 64 -21 0 -27 4 -22 15 3 8 13 56 23 105 12 65 14 93 6 101 -7 7 -115
12 -324 15 -173 2 -364 6 -426 9 -61 4 -113 2 -116 -2z m791 -49 c23 -3 42
-10 42 -15 0 -5 -11 -55 -25 -111 -14 -56 -25 -103 -25 -106 0 -3 -78 -2 -172
1 -95 4 -259 10 -365 13 l-191 7 -7 86 c-3 47 -8 97 -11 111 l-5 25 358 -3
c197 -1 377 -5 401 -8z m139 -254 c39 -23 48 -53 39 -133 -7 -71 -38 -141 -72
-163 -33 -22 -95 -28 -116 -12 -16 12 -16 19 1 113 41 225 38 215 79 215 20 0
52 -9 69 -20z"/>
<path d="M1639 7286 c-1 -6 0 -15 1 -21 1 -5 6 -80 10 -165 5 -85 16 -218 25
-295 8 -77 19 -182 25 -234 5 -51 11 -95 12 -97 2 -1 148 -6 324 -9 l321 -6
12 58 c29 136 28 132 66 126 81 -13 153 26 187 104 27 62 35 190 14 231 -19
36 -81 72 -126 72 -34 0 -35 3 -16 85 8 33 16 78 18 99 3 37 1 40 -27 47 -53
13 -845 18 -846 5z m558 -36 l273 0 0 -22 c0 -13 -10 -67 -22 -122 l-23 -99
-125 7 c-69 3 -234 9 -367 12 l-243 7 0 67 c0 37 -3 89 -7 115 l-6 48 123 -6
c68 -4 246 -7 397 -7z m363 -252 l45 -23 3 -72 c4 -94 -12 -149 -53 -190 -29
-29 -40 -33 -83 -33 -28 0 -54 4 -57 10 -5 8 38 283 50 318 7 19 46 14 95 -10z"/>
<path d="M815 6930 c-4 -6 -4 -22 -1 -36 5 -20 1 -30 -19 -45 -18 -15 -25 -30
-25 -57 l0 -37 -20 44 c-19 42 -22 43 -55 38 -28 -5 -35 -2 -40 14 -7 20 -20
25 -29 10 -3 -5 4 -37 16 -70 26 -73 50 -79 58 -16 l5 40 17 -44 c14 -35 21
-43 38 -38 11 3 22 1 26 -4 15 -25 42 -28 67 -9 22 18 26 18 37 4 25 -29 35 2
15 46 -10 22 -28 68 -39 102 -21 61 -37 80 -51 58z m35 -141 c0 -6 -5 -19 -11
-30 -8 -16 -13 -18 -25 -8 -14 12 -19 50 -8 62 9 8 44 -11 44 -24z"/>
<path d="M144 6879 c-24 -26 -26 -129 -3 -174 18 -38 35 -31 31 13 -2 23 2 38
14 46 19 15 10 40 -12 32 -20 -7 -19 48 1 68 8 8 15 19 15 25 0 18 -26 12 -46
-10z"/>
<path d="M1083 6893 c-19 -7 -16 -33 3 -33 12 0 14 -5 8 -17 -31 -70 26 -134
74 -83 17 19 21 19 48 5 16 -8 32 -11 37 -6 11 11 -67 91 -87 91 -7 0 -19 7
-26 16 -18 21 -42 32 -57 27z m59 -98 c0 -5 -5 -11 -11 -13 -6 -2 -11 4 -11
13 0 9 5 15 11 13 6 -2 11 -8 11 -13z"/>
<path d="M925 6880 c-7 -11 12 -50 25 -50 16 0 21 19 10 40 -12 22 -25 26 -35
10z"/>
<path d="M394 6853 c3 -10 16 -48 28 -85 26 -79 55 -96 44 -26 -10 62 -42 128
-62 128 -11 0 -14 -5 -10 -17z"/>
<path d="M464 6848 c-4 -7 2 -18 14 -26 12 -8 22 -24 22 -36 0 -26 26 -66 44
-66 7 0 25 10 39 23 22 19 25 27 19 52 -6 19 -15 30 -28 31 -10 1 -36 9 -58
18 -46 19 -43 19 -52 4z m87 -81 c-8 -8 -11 -7 -11 4 0 20 13 34 18 19 3 -7
-1 -17 -7 -23z"/>
<path d="M234 6839 c-10 -17 13 -36 27 -22 12 12 4 33 -11 33 -5 0 -12 -5 -16
-11z"/>
<path d="M304 6805 c-11 -28 9 -99 29 -103 14 -3 17 4 17 35 l0 38 20 -32 c19
-33 50 -45 50 -20 -1 6 -13 30 -28 52 -31 44 -77 60 -88 30z"/>
<path d="M935 6783 c11 -45 45 -74 45 -38 0 25 -23 65 -38 65 -10 0 -12 -7 -7
-27z"/>
<path d="M241 6786 c-15 -18 -4 -66 15 -66 9 0 14 12 14 34 0 39 -12 52 -29
32z"/>
<path d="M3222 6254 c-63 -44 -69 -135 -16 -231 32 -56 36 -70 30 -109 -3 -24
-13 -56 -22 -70 -12 -18 -14 -28 -6 -36 14 -14 27 -5 46 36 28 58 21 126 -20
203 -45 84 -43 133 5 174 49 40 34 69 -17 33z"/>
<path d="M2084 6219 c-26 -27 -29 -37 -29 -97 0 -57 4 -74 29 -112 39 -60 45
-117 17 -170 -12 -23 -19 -46 -16 -51 22 -35 65 49 65 127 0 46 -6 66 -32 108
-23 38 -32 63 -32 99 -1 43 3 52 32 78 17 16 32 33 32 39 0 21 -37 9 -66 -21z"/>
<path d="M4512 6224 c-61 -42 -70 -147 -21 -228 42 -67 47 -111 20 -171 -22
-51 -22 -61 4 -51 24 9 45 69 45 128 0 42 -6 62 -30 98 -52 79 -52 141 1 191
17 16 28 33 24 39 -8 14 -17 13 -43 -6z"/>
<path d="M2761 5666 c-7 -8 -10 -20 -6 -25 3 -6 10 -86 15 -178 5 -92 17 -231
25 -308 9 -77 20 -175 25 -219 4 -43 12 -82 17 -86 4 -4 150 -9 323 -11 l315
-4 20 90 21 90 71 5 c62 4 76 9 104 35 17 17 40 49 51 72 24 55 34 189 16 223
-18 34 -71 67 -118 75 -44 7 -44 9 -29 75 21 91 26 140 15 149 -6 5 -193 12
-417 15 -223 3 -412 8 -420 11 -9 3 -21 -1 -28 -9z m777 -45 c62 -1 62 0 29
-141 l-23 -95 -54 2 c-30 1 -196 8 -367 14 l-313 13 0 55 c0 31 -3 80 -6 109
l-7 52 344 -4 c189 -2 368 -5 397 -5z m153 -254 c32 -22 34 -26 37 -90 4 -86
-11 -140 -52 -184 -27 -30 -41 -36 -84 -41 -42 -4 -53 -1 -58 12 -6 16 40 299
52 318 10 16 72 8 105 -15z"/>
<path d="M1639 5646 c-1 -6 0 -15 1 -21 1 -5 6 -84 11 -175 5 -91 15 -219 23
-285 8 -66 18 -160 21 -210 11 -138 -13 -125 235 -130 118 -2 262 -5 320 -6
l105 -3 17 75 c9 41 19 83 22 94 5 18 14 20 75 20 64 0 72 3 102 30 46 44 69
103 76 198 5 80 5 83 -23 116 -30 36 -78 61 -119 61 -29 0 -29 4 -11 85 8 33
16 78 18 100 l3 40 -100 7 c-187 12 -775 15 -776 4z m809 -42 c28 -6 28 -22 0
-142 l-23 -95 -165 7 c-91 3 -256 9 -367 13 l-203 6 0 61 c0 34 -3 84 -6 111
l-6 51 373 -4 c206 -1 384 -5 397 -8z m131 -260 c29 -24 31 -30 31 -92 0 -89
-15 -136 -54 -180 -29 -31 -39 -36 -84 -36 -28 -1 -54 2 -58 6 -6 7 42 303 53
321 11 18 82 6 112 -19z"/>
<path d="M4055 5539 c18 -288 59 -690 73 -714 6 -12 62 -16 324 -20 l317 -5
10 37 c5 21 15 64 22 95 l12 58 36 -6 c59 -9 115 11 154 57 41 48 57 102 57
197 0 55 -4 75 -21 96 -27 34 -67 55 -114 58 -35 2 -36 3 -30 33 28 128 35
189 23 197 -7 4 -161 8 -343 8 -181 0 -374 3 -428 7 l-99 6 7 -104z m833 46
c2 -2 -6 -48 -18 -102 -12 -54 -29 -136 -38 -183 l-17 -85 -345 -5 c-190 -3
-347 -4 -349 -3 -3 2 -8 52 -13 111 -5 59 -12 146 -16 194 l-7 86 399 -4 c220
-2 402 -6 404 -9z m98 -250 c37 -24 45 -56 35 -145 -9 -81 -29 -124 -74 -155
-23 -16 -112 -21 -121 -7 -3 5 6 71 19 148 36 203 29 187 76 181 22 -3 51 -13
65 -22z"/>
<path d="M294 5185 c-9 -23 3 -156 15 -168 16 -16 31 3 31 41 0 52 13 69 28
37 7 -14 15 -44 18 -66 6 -37 26 -60 40 -46 9 9 -18 115 -38 148 -14 23 -25
30 -42 27 -17 -4 -22 0 -22 15 1 25 -22 34 -30 12z"/>
<path d="M1114 5187 c-4 -12 -1 -24 8 -34 14 -13 14 -18 1 -44 -12 -23 -12
-36 -3 -63 11 -35 26 -46 61 -46 12 0 23 -10 30 -27 6 -17 13 -23 20 -16 14
14 0 153 -16 153 -7 0 -31 21 -53 48 -35 40 -41 44 -48 29z m60 -103 c16 -6
22 -35 9 -47 -10 -11 -33 13 -33 34 0 21 1 22 24 13z"/>
<path d="M616 5181 c-4 -6 -16 -11 -27 -11 -26 0 -25 -46 2 -111 16 -35 27
-49 42 -49 19 0 19 4 13 83 -7 81 -17 109 -30 88z"/>
<path d="M757 5184 c-4 -5 -5 -34 -1 -66 7 -64 -4 -76 -32 -33 -11 17 -14 36
-10 55 4 25 2 30 -13 30 -41 0 -35 -73 9 -120 31 -33 39 -36 63 -17 16 12 21
37 19 93 -2 34 -23 69 -35 58z"/>
<path d="M844 5180 c-6 -6 -8 -31 -4 -62 5 -38 14 -57 34 -75 31 -26 68 -30
86 -8 11 13 15 13 33 0 12 -8 29 -15 39 -15 15 0 18 -9 18 -54 0 -58 10 -75
29 -52 14 16 -5 232 -22 254 -12 16 -52 16 -65 -1 -6 -6 -14 -25 -18 -41 -9
-37 -34 -66 -56 -66 -27 0 -31 17 -8 40 22 22 26 60 8 78 -15 15 -60 16 -74 2z
m56 -39 c0 -6 -4 -13 -10 -16 -5 -3 -10 1 -10 9 0 9 5 16 10 16 6 0 10 -4 10
-9z m131 -74 c-18 -18 -32 4 -25 36 10 51 18 54 26 13 5 -23 5 -43 -1 -49z"/>
<path d="M440 5112 c-12 -52 -4 -88 24 -111 25 -21 62 0 71 38 10 45 -28 121
-60 121 -19 0 -25 -8 -35 -48z m56 -27 c7 -30 -2 -59 -16 -50 -13 8 -13 75 0
75 5 0 12 -11 16 -25z"/>
<path d="M4430 4527 c-62 -49 -68 -137 -15 -231 40 -72 43 -103 15 -165 -31
-69 -4 -88 30 -21 32 63 27 130 -15 206 -46 83 -46 121 0 172 33 37 36 52 11
52 -6 0 -18 -6 -26 -13z"/>
<path d="M3222 4504 c-62 -43 -69 -133 -17 -231 40 -76 43 -110 14 -170 -22
-46 -21 -60 6 -49 24 9 45 69 45 127 0 39 -8 65 -35 113 -49 87 -45 134 12
182 14 12 22 27 19 33 -9 15 -17 14 -44 -5z"/>
<path d="M2098 4480 c-57 -45 -63 -146 -13 -222 38 -58 44 -115 16 -169 -14
-27 -19 -45 -12 -52 24 -24 61 49 61 123 0 39 -8 66 -35 117 -19 36 -35 78
-35 92 0 30 33 89 55 97 19 8 20 34 1 34 -7 0 -25 -9 -38 -20z"/>
<path d="M3976 3941 c-13 -20 43 -688 65 -783 l11 -47 315 -3 c201 -2 317 1
322 7 5 6 16 48 26 95 l17 85 69 0 c66 0 69 1 109 40 27 26 46 56 55 89 20 67
20 185 -1 214 -20 29 -85 62 -124 62 -35 0 -34 -3 -16 75 8 33 16 80 18 104 3
42 1 45 -26 52 -16 5 -201 8 -411 7 -210 0 -391 3 -403 6 -11 4 -23 2 -26 -3z
m526 -41 c273 0 308 -2 308 -16 0 -8 -11 -63 -25 -122 -13 -59 -30 -136 -37
-172 l-13 -65 -344 -7 c-190 -5 -346 -6 -349 -4 -7 7 -20 144 -27 275 l-6 124
92 -6 c51 -4 231 -7 401 -7z m386 -250 c52 -24 65 -53 56 -134 -8 -87 -20
-118 -58 -155 -27 -26 -41 -32 -80 -33 -26 0 -51 3 -56 8 -9 10 33 273 50 312
12 27 32 28 88 2z"/>
<path d="M2754 3909 c-3 -5 -2 -13 1 -19 3 -5 10 -85 15 -177 9 -151 19 -262
50 -532 5 -46 11 -85 12 -86 2 -2 147 -4 323 -6 l319 -4 22 90 21 89 59 1 c72
1 112 21 146 72 46 67 62 215 29 269 -22 35 -75 64 -120 64 -35 0 -37 8 -20
80 21 91 26 140 15 149 -15 12 -864 22 -872 10z m599 -39 l237 0 0 -22 c0 -28
-38 -189 -49 -206 -6 -9 -54 -10 -212 -2 -112 5 -275 10 -361 10 l-158 0 0 54
c0 29 -3 81 -7 116 l-6 63 159 -6 c87 -4 266 -7 397 -7z m347 -260 c29 -20 30
-24 30 -94 0 -104 -28 -172 -83 -203 -33 -18 -106 -17 -114 2 -5 15 43 301 54
319 9 14 80 -1 113 -24z"/>
<path d="M1642 3897 c-7 -8 -10 -16 -7 -19 3 -3 10 -79 15 -169 5 -90 16 -227
25 -304 8 -77 19 -180 24 -228 5 -49 13 -92 17 -97 5 -4 151 -9 324 -11 l314
-4 22 90 21 90 71 5 c61 4 75 9 103 35 46 44 70 105 76 196 5 63 3 83 -11 104
-22 34 -70 62 -119 70 -38 7 -39 8 -32 39 21 96 33 182 27 188 -4 4 -192 10
-419 13 -226 3 -418 7 -425 10 -8 3 -20 0 -26 -8z m373 -37 c138 0 296 -3 353
-6 102 -7 102 -7 102 -33 0 -14 -11 -66 -23 -115 l-23 -90 -54 2 c-30 1 -196
7 -367 14 l-313 12 0 60 c0 34 -3 85 -7 115 l-6 54 44 -7 c24 -3 157 -6 294
-6z m556 -263 c33 -22 34 -25 37 -95 4 -93 -10 -140 -52 -181 -25 -25 -46 -34
-78 -38 -74 -7 -75 -5 -43 169 15 84 29 156 32 161 9 15 71 6 104 -16z"/>
<path d="M382 3518 c-15 -15 -15 -45 0 -54 6 -4 17 1 24 11 13 18 14 18 34 0
l20 -18 -22 -11 c-17 -9 -24 -21 -26 -51 -5 -80 46 -121 86 -70 20 25 21 25
27 5 3 -11 15 -20 26 -20 23 0 23 0 0 52 -11 24 -22 55 -26 71 -3 15 -10 27
-15 27 -6 0 -24 16 -41 35 -32 36 -65 45 -87 23z m100 -114 c9 -8 -6 -57 -19
-61 -12 -4 -27 43 -18 57 7 11 28 13 37 4z"/>
<path d="M856 3523 c-3 -3 -6 -19 -6 -34 0 -23 -5 -28 -27 -31 -43 -5 -40 -27
6 -34 39 -6 40 -8 52 -61 14 -63 33 -93 48 -78 7 7 4 29 -8 70 -11 33 -15 62
-10 63 14 6 11 29 -5 35 -8 3 -17 19 -21 36 -7 32 -18 45 -29 34z"/>
<path d="M727 3472 c-24 -26 -21 -49 8 -68 27 -18 38 -43 29 -68 -5 -13 -9
-14 -20 -5 -19 15 -31 -16 -14 -36 19 -23 45 -18 58 10 20 43 14 83 -14 112
-18 18 -22 29 -15 36 15 15 14 37 -2 37 -8 0 -21 -8 -30 -18z"/>
<path d="M1060 3474 c0 -9 5 -14 12 -12 18 6 21 28 4 28 -9 0 -16 -7 -16 -16z"/>
<path d="M1135 3470 c-8 -14 3 -30 21 -30 11 0 13 -9 8 -38 -4 -29 -1 -43 14
-62 17 -21 24 -23 39 -14 15 9 24 7 46 -12 16 -13 34 -24 42 -24 26 0 26 19
-1 37 -15 9 -33 32 -40 50 -27 62 -110 123 -129 93z m85 -79 c0 -11 -4 -23
-10 -26 -6 -4 -10 5 -10 19 0 14 5 26 10 26 6 0 10 -9 10 -19z"/>
<path d="M570 3440 c0 -49 20 -117 40 -135 16 -15 19 -15 34 0 17 17 20 55 10
118 -9 53 -34 50 -34 -5 0 -50 -9 -45 -14 8 -5 50 -36 63 -36 14z"/>
<path d="M983 3442 c-20 -16 -21 -21 -11 -69 8 -41 15 -53 29 -53 16 0 19 8
19 48 0 26 3 57 6 70 8 27 -11 29 -43 4z"/>
<path d="M1057 3413 c-9 -8 -9 -70 -1 -101 4 -14 13 -22 23 -20 12 2 15 13 13
48 -5 71 -15 93 -35 73z"/>
<path d="M4442 2735 c-61 -51 -66 -144 -12 -225 35 -52 40 -121 14 -171 -18
-37 -12 -68 11 -49 7 6 22 31 31 56 22 58 14 122 -22 177 -18 28 -29 59 -32
94 -4 48 -2 55 27 83 17 17 31 35 31 40 0 21 -20 18 -48 -5z"/>
<path d="M3177 2692 c-56 -58 -57 -132 -3 -217 35 -57 40 -119 12 -173 -20
-38 -20 -52 -2 -52 8 0 24 21 36 46 30 61 24 132 -15 194 -17 27 -30 64 -33
91 -4 42 -1 50 32 86 34 38 37 53 11 53 -6 0 -23 -13 -38 -28z"/>
<path d="M2070 2687 c-63 -49 -68 -133 -14 -234 30 -57 35 -74 29 -108 -3 -22
-13 -50 -21 -63 -20 -31 -11 -60 13 -41 25 21 43 73 43 125 0 35 -9 63 -35
110 -22 39 -35 76 -35 98 0 27 9 46 35 75 19 21 35 41 35 45 0 10 -34 6 -50
-7z"/>
<path d="M3983 2143 c-3 -7 -2 -21 1 -30 4 -9 11 -85 16 -167 6 -83 14 -194
20 -246 5 -52 14 -145 20 -206 6 -61 14 -123 18 -138 l7 -27 322 -5 321 -5 17
78 c26 121 21 114 64 107 55 -9 115 11 147 49 40 48 55 90 60 181 5 69 3 86
-14 112 -23 35 -76 64 -121 64 -36 0 -37 7 -16 95 8 33 14 77 15 97 0 31 -4
39 -22 43 -13 3 -209 6 -437 7 -323 2 -415 0 -418 -9z m836 -39 c3 -3 0 -33
-6 -67 -21 -113 -60 -298 -64 -301 -6 -6 -687 -11 -693 -6 -3 3 -10 75 -15
160 -6 85 -13 171 -16 191 l-5 37 398 -5 c218 -3 399 -7 401 -9z m111 -254
c29 -20 30 -25 30 -93 0 -90 -12 -133 -48 -177 -27 -32 -33 -34 -88 -35 l-59
0 3 45 c2 44 38 251 48 279 6 20 75 8 114 -19z"/>
<path d="M2731 2120 c-9 -5 -12 -17 -7 -31 3 -13 11 -104 16 -203 6 -98 15
-208 20 -245 5 -36 14 -120 20 -186 5 -66 13 -129 16 -141 5 -20 12 -21 322
-27 234 -5 318 -4 323 5 4 6 15 49 25 95 l17 83 70 0 c69 0 70 1 112 43 25 25
47 58 54 82 14 50 14 190 1 215 -14 26 -69 57 -116 65 l-41 6 18 77 c20 82 24
138 11 146 -4 2 -193 7 -420 10 -227 3 -416 7 -420 10 -5 3 -14 1 -21 -4z
m444 -44 c207 -3 380 -7 383 -10 5 -6 -17 -117 -41 -199 -10 -37 -10 -37 -56
-32 -25 2 -189 10 -363 16 l-318 12 -1 51 c0 28 -4 77 -8 108 -7 54 0 73 20
62 4 -2 177 -6 384 -8z m470 -250 c42 -18 55 -42 55 -100 0 -132 -49 -214
-133 -223 -63 -7 -77 5 -66 60 4 23 18 95 30 160 l21 117 29 0 c16 0 45 -6 64
-14z"/>
<path d="M1604 2099 c-2 -4 0 -38 5 -76 5 -37 12 -127 16 -199 3 -72 10 -157
15 -190 5 -32 14 -116 20 -187 6 -70 14 -137 18 -148 7 -19 18 -20 222 -24
118 -2 262 -5 319 -6 l105 -3 20 94 21 94 60 -2 c110 -4 168 57 186 197 12 97
7 130 -24 159 -27 26 -88 52 -120 52 l-24 0 18 78 c10 42 18 93 19 113 l0 37
-132 6 c-224 10 -738 13 -744 5z m814 -45 c12 -2 22 -12 22 -22 0 -25 -40
-185 -50 -202 -7 -12 -50 -12 -287 -2 -153 7 -315 12 -360 12 l-83 0 -1 58 c0
31 -4 82 -8 112 l-7 56 376 -4 c206 -1 385 -5 398 -8z m140 -267 c41 -38 27
-187 -24 -254 -27 -36 -87 -58 -130 -47 -25 6 -26 9 -21 53 3 25 15 99 27 163
17 89 26 118 39 121 26 5 84 -13 109 -36z"/>
<path d="M350 1737 c0 -7 4 -17 9 -22 5 -6 14 -48 21 -95 11 -83 29 -120 56
-120 31 0 45 88 23 147 -12 33 -77 103 -96 103 -7 0 -13 -6 -13 -13z m90 -154
c0 -12 -4 -25 -10 -28 -6 -3 -10 4 -10 18 0 14 -2 40 -5 58 l-5 34 14 -30 c9
-16 15 -40 16 -52z"/>
<path d="M857 1702 c-3 -4 -1 -31 5 -60 5 -30 7 -59 4 -65 -2 -7 -5 -3 -5 8
-1 11 -6 36 -11 56 -9 34 -14 37 -58 43 -26 3 -59 9 -74 12 -38 9 -38 -21 0
-34 25 -9 28 -14 24 -46 -3 -23 2 -45 12 -61 16 -25 50 -34 60 -16 3 5 18 11
32 14 20 4 28 0 32 -15 9 -35 27 -12 30 40 2 29 7 52 13 52 5 0 9 -5 9 -10 0
-6 7 -26 14 -45 19 -46 46 -38 47 14 1 37 3 35 13 -11 4 -16 13 -28 22 -28 14
0 15 8 9 48 -11 78 -50 117 -74 75 -8 -15 -12 -16 -22 -5 -7 6 -21 12 -30 12
-9 0 -19 7 -23 15 -6 16 -22 20 -29 7z m-57 -91 c0 -17 -4 -33 -10 -36 -6 -4
-10 8 -10 29 0 20 5 36 10 36 6 0 10 -13 10 -29z"/>
<path d="M525 1690 c-7 -12 2 -30 16 -30 12 0 12 27 0 35 -5 3 -12 1 -16 -5z"/>
<path d="M593 1683 c-7 -19 12 -122 26 -136 16 -16 31 3 32 41 l1 37 9 -32
c10 -34 23 -48 38 -38 14 8 -15 97 -35 112 -9 7 -21 10 -25 7 -5 -3 -9 2 -9
10 0 21 -29 20 -37 -1z"/>
<path d="M1067 1693 c-13 -12 -7 -33 9 -33 12 0 14 -5 9 -17 -33 -80 0 -147
49 -98 8 8 19 15 25 15 6 0 11 15 11 34 0 49 -78 124 -103 99z m56 -93 c-3
-11 -10 -23 -16 -27 -7 -4 -8 0 -4 11 4 10 7 22 7 27 0 5 4 9 9 9 5 0 7 -9 4
-20z"/>
<path d="M1203 1686 c-27 -13 -29 -31 -6 -88 18 -46 33 -62 46 -49 8 8 -3 152
-12 150 -3 -1 -16 -6 -28 -13z"/>
<path d="M1370 1679 c0 -6 8 -13 18 -16 16 -4 18 -9 9 -42 -22 -81 49 -135 84
-64 l16 32 21 -22 c17 -16 24 -19 34 -9 9 9 8 16 -5 30 -9 10 -23 34 -31 53
-13 30 -21 37 -53 43 -57 9 -93 7 -93 -5z m90 -63 c0 -31 -10 -56 -21 -56 -10
0 -12 63 -2 73 13 14 23 6 23 -17z"/>
<path d="M1301 1661 c-27 -27 -28 -82 -3 -104 24 -22 92 -23 92 -2 0 10 -10
15 -29 15 -55 0 -68 61 -15 74 14 4 24 12 21 19 -6 21 -45 19 -66 -2z"/>
<path d="M522 1573 c4 -52 28 -56 28 -4 0 30 -4 41 -16 41 -11 0 -14 -9 -12
-37z"/>
</g>
</svg>
